<svg width="256" height="256" viewBox="0 0 256 256" fill="none" xmlns="http://www.w3.org/2000/svg">
<path d="M71.6804 97.2199L34.7404 128L71.6804 158.78C72.9055 159.784 73.9197 161.02 74.6645 162.418C75.4094 163.816 75.8701 165.348 76.0201 166.925C76.1702 168.501 76.0066 170.092 75.5387 171.606C75.0709 173.119 74.3081 174.525 73.2944 175.742C72.2806 176.959 71.036 177.963 69.6322 178.696C68.2284 179.43 66.6932 179.879 65.1153 180.016C63.5373 180.153 61.9478 179.977 60.4383 179.497C58.9288 179.017 57.5293 178.243 56.3204 177.22L8.32038 137.22C6.96849 136.094 5.88079 134.684 5.13435 133.091C4.3879 131.497 4.00098 129.759 4.00098 128C4.00098 126.24 4.3879 124.502 5.13435 122.909C5.88079 121.316 6.96849 119.906 8.32038 118.78L56.3204 78.7799C58.7691 76.7731 61.9117 75.8153 65.0634 76.1152C68.2152 76.4152 71.1207 77.9484 73.147 80.381C75.1733 82.8136 76.1561 85.9485 75.8814 89.1025C75.6067 92.2565 74.0967 95.1742 71.6804 97.2199ZM247.68 118.78L199.68 78.7799C198.471 77.7565 197.072 76.9825 195.562 76.5026C194.053 76.0227 192.463 75.8463 190.885 75.9838C189.308 76.1212 187.772 76.5697 186.369 77.3033C184.965 78.0369 183.72 79.0412 182.706 80.2583C181.693 81.4753 180.93 82.881 180.462 84.3942C179.994 85.9075 179.831 87.4984 179.981 89.0752C180.131 90.6521 180.591 92.1836 181.336 93.5814C182.081 94.9793 183.095 96.2159 184.32 97.2199L221.26 128L184.32 158.78C183.095 159.784 182.081 161.02 181.336 162.418C180.591 163.816 180.131 165.348 179.981 166.925C179.831 168.501 179.994 170.092 180.462 171.606C180.93 173.119 181.693 174.525 182.706 175.742C183.72 176.959 184.965 177.963 186.369 178.696C187.772 179.43 189.308 179.879 190.885 180.016C192.463 180.153 194.053 179.977 195.562 179.497C197.072 179.017 198.471 178.243 199.68 177.22L247.68 137.22C249.032 136.094 250.12 134.684 250.866 133.091C251.613 131.497 252 129.759 252 128C252 126.24 251.613 124.502 250.866 122.909C250.12 121.316 249.032 119.906 247.68 118.78ZM164.1 28.7199C162.619 28.1812 161.046 27.9396 159.472 28.0089C157.897 28.0782 156.351 28.4571 154.923 29.1238C153.495 29.7906 152.212 30.7322 151.148 31.8948C150.083 33.0575 149.259 34.4184 148.72 35.8999L84.7204 211.9C83.6355 214.89 83.7824 218.189 85.1288 221.071C86.4752 223.953 88.9108 226.183 91.9004 227.27C93.2129 227.755 94.6012 228.002 96.0004 228C98.4642 228 100.868 227.242 102.886 225.829C104.904 224.416 106.439 222.415 107.28 220.1L171.28 44.0999C171.819 42.6186 172.061 41.0457 171.991 39.471C171.922 37.8963 171.543 36.3508 170.876 34.9225C170.21 33.4943 169.268 32.2114 168.105 31.1471C166.943 30.0829 165.582 29.2581 164.1 28.7199Z" fill="#B8A07E"/>
</svg>
