<svg width="41" height="41" viewBox="0 0 41 41" fill="none" xmlns="http://www.w3.org/2000/svg">
<g clip-path="url(#clip0_195_22)">
<path d="M24.3108 14.6897C25.8887 14.6897 27.1679 13.4105 27.1679 11.8325C27.1679 10.2546 25.8887 8.97537 24.3108 8.97537C22.7328 8.97537 21.4536 10.2546 21.4536 11.8325C21.4536 13.4105 22.7328 14.6897 24.3108 14.6897Z" stroke="#B8A07E" stroke-width="2.79368" stroke-linecap="round" stroke-linejoin="round"/>
<path d="M12.8822 28.9754C13.6712 28.9754 14.3108 28.3358 14.3108 27.5468C14.3108 26.7578 13.6712 26.1182 12.8822 26.1182C12.0932 26.1182 11.4536 26.7578 11.4536 27.5468C11.4536 28.3358 12.0932 28.9754 12.8822 28.9754Z" stroke="#B8A07E" stroke-width="2.79368" stroke-linecap="round" stroke-linejoin="round"/>
<path d="M12.8823 18.9754C14.4602 18.9754 15.7394 17.6962 15.7394 16.1182C15.7394 14.5403 14.4602 13.2611 12.8823 13.2611C11.3043 13.2611 10.0251 14.5403 10.0251 16.1182C10.0251 17.6962 11.3043 18.9754 12.8823 18.9754Z" stroke="#B8A07E" stroke-width="2.79368" stroke-linecap="round" stroke-linejoin="round"/>
<path d="M27.2247 35.4897C27.1928 34.9355 27.0002 34.4025 26.6704 33.956C26.3406 33.5095 25.8879 33.1687 25.3675 32.9754C24.0753 32.5506 22.9769 31.6788 22.2699 30.5167C21.5629 29.3546 21.2937 27.9784 21.5106 26.6355C21.7275 25.2926 22.4164 24.0712 23.4533 23.1908C24.4903 22.3104 25.8073 21.8288 27.1675 21.8325H32.5104C33.4268 21.8351 34.3303 21.6172 35.1448 21.1973C35.9593 20.7773 36.6609 20.1677 37.1903 19.4197C37.7198 18.6718 38.0616 17.8075 38.1869 16.8997C38.3122 15.992 38.2174 15.0674 37.9104 14.2039C36.774 10.9953 34.7776 8.16066 32.1393 6.00978C29.501 3.85891 26.3223 2.47452 22.9504 2.00786C19.5786 1.5412 16.1434 2.01023 13.0201 3.36371C9.89681 4.71718 7.20557 6.90303 5.24043 9.68244C3.27528 12.4619 2.11183 15.7279 1.87719 19.1238C1.64255 22.5196 2.34573 25.9146 3.90993 28.9379C5.47412 31.9612 7.83915 34.4964 10.7466 36.2666C13.6541 38.0368 16.9921 38.9738 20.3961 38.9754C22.0771 38.9801 23.7505 38.7492 25.3675 38.2897C25.9614 38.1232 26.4757 37.7489 26.8166 37.2349C27.1576 36.7209 27.3024 36.1015 27.2247 35.4897Z" stroke="#B8A07E" stroke-width="2.79368" stroke-linecap="round" stroke-linejoin="round"/>
</g>
<defs>
<clipPath id="clip0_195_22">
<rect width="40" height="40" fill="white" transform="translate(0.0249023 0.403931)"/>
</clipPath>
</defs>
</svg>
