<svg width="41" height="41" viewBox="0 0 41 41" fill="none" xmlns="http://www.w3.org/2000/svg">
<path d="M19.971 1.86752C11.3911 1.77861 2.16506 7.97736 2.15381 19.5078L3.82592 15.4926C3.0849 21.1395 3.22045 26.9954 6.85639 31.3131L3.59678 29.8848C6.6624 35.3359 13.4665 36.9923 19.2886 37.1121C10.3085 33.9899 5.91475 27.1443 5.60553 19.6611C5.08037 3.1158 25.9694 2.65377 32.229 13.7416C31.962 12.2188 31.5553 10.7396 31.0088 9.35799C37.0561 16.3232 35.6411 26.1451 29.3455 29.1264C27.451 29.435 25.5229 30.0686 24.5835 30.6108C20.0094 33.2516 24.0936 40.4964 28.7417 37.813C29.4792 37.3872 30.5701 36.4612 31.5928 35.3636C36.6209 30.7136 39.2569 26.1261 38.8669 20.6027C38.3575 22.8761 37.3688 25.1264 36.0838 27.2185C41.018 15.7481 36.7054 6.60213 24.7683 3.67525C25.7134 4.13111 26.6045 4.7401 27.4147 5.50025C22.9291 3.64463 17.1707 3.73307 12.8144 5.77408C15.007 3.72721 17.875 2.35768 20.7987 1.8958C20.5237 1.87979 20.2476 1.87041 19.9708 1.86752H19.971ZM18.4288 14.3833L16.8786 22.24C16.6475 22.5377 16.4379 22.7753 16.1729 23.0166L14.166 19.181L12.3922 20.113L14.8429 24.8743C15.1929 25.7707 15.6258 26.4899 16.0275 27.1028C18.2199 30.4467 21.0702 29.8568 23.473 27.8492L30.2918 24.0639L29.2988 22.3063L24.1319 25.1922C24.0134 24.9458 23.8768 24.6803 23.7369 24.4492L29.0352 19.3742L27.6649 17.9137L22.4719 22.8951C22.2879 22.714 22.1408 22.5414 21.9434 22.3842L25.4656 16.2838L23.6896 15.2582L20.1065 21.3752C19.8104 21.2728 19.5033 21.2033 19.2006 21.1607L20.4237 14.7626L18.429 14.3834L18.4288 14.3833Z" fill="#B8A07E"/>
</svg>
