<svg width="41" height="38" viewBox="0 0 41 38" fill="none" xmlns="http://www.w3.org/2000/svg">
<g clip-path="url(#clip0_196_30)">
<path d="M19.279 19.0706C19.279 17.5984 18.7581 16.3414 17.7165 15.2998C16.6748 14.2581 15.4179 13.7373 13.9456 13.7373C12.4734 13.7373 11.2165 14.2581 10.1748 15.2998C9.13314 16.3414 8.6123 17.5984 8.6123 19.0706C8.6123 20.5428 9.13314 21.7998 10.1748 22.8414C11.2165 23.8831 12.4734 24.4039 13.9456 24.4039C15.4179 24.4039 16.6748 23.8831 17.7165 22.8414C18.7581 21.7998 19.279 20.5428 19.279 19.0706ZM35.279 29.7373C35.279 29.015 35.0151 28.39 34.4873 27.8623C33.9595 27.3345 33.3345 27.0706 32.6123 27.0706C31.8901 27.0706 31.2651 27.3345 30.7373 27.8623C30.2095 28.39 29.9456 29.015 29.9456 29.7373C29.9456 30.4734 30.2061 31.1018 30.7269 31.6227C31.2477 32.1435 31.8762 32.4039 32.6123 32.4039C33.3484 32.4039 33.9769 32.1435 34.4977 31.6227C35.0186 31.1018 35.279 30.4734 35.279 29.7373ZM35.279 8.40393C35.279 7.6817 35.0151 7.0567 34.4873 6.52893C33.9595 6.00115 33.3345 5.73726 32.6123 5.73726C31.8901 5.73726 31.2651 6.00115 30.7373 6.52893C30.2095 7.0567 29.9456 7.6817 29.9456 8.40393C29.9456 9.14004 30.2061 9.76851 30.7269 10.2893C31.2477 10.8102 31.8762 11.0706 32.6123 11.0706C33.3484 11.0706 33.9769 10.8102 34.4977 10.2893C35.0186 9.76851 35.279 9.14004 35.279 8.40393ZM27.279 17.1748V21.0289C27.279 21.1678 27.2304 21.3032 27.1331 21.4352C27.0359 21.5671 26.9248 21.64 26.7998 21.6539L23.5706 22.1539C23.4179 22.64 23.1956 23.1678 22.904 23.7373C23.3762 24.4039 24.0012 25.2025 24.779 26.1331C24.8762 26.2859 24.9248 26.4248 24.9248 26.5498C24.9248 26.7164 24.8762 26.8484 24.779 26.9456C24.4595 27.3623 23.8866 27.9838 23.0602 28.8102C22.2338 29.6366 21.6887 30.0498 21.4248 30.0498C21.272 30.0498 21.1262 30.0011 20.9873 29.9039L18.5915 28.0289C18.0776 28.2928 17.5429 28.5081 16.9873 28.6748C16.8345 30.1748 16.6748 31.2511 16.5081 31.9039C16.4109 32.2373 16.2026 32.4039 15.8831 32.4039H12.0081C11.8554 32.4039 11.7165 32.3518 11.5915 32.2477C11.4665 32.1435 11.397 32.022 11.3831 31.8831L10.904 28.6956C10.4317 28.5567 9.91092 28.3414 9.34147 28.0498L6.88314 29.9039C6.78592 30.0011 6.64703 30.0498 6.46647 30.0498C6.31369 30.0498 6.16786 29.9942 6.02897 29.8831C4.02897 28.0359 3.02897 26.9248 3.02897 26.5498C3.02897 26.4248 3.07758 26.2928 3.1748 26.1539C3.31369 25.9595 3.59842 25.5914 4.02897 25.0498C4.45953 24.5081 4.78592 24.0845 5.00814 23.7789C4.68869 23.1678 4.44564 22.5984 4.27897 22.0706L1.1123 21.5706C0.973416 21.5567 0.85536 21.4907 0.758138 21.3727C0.660916 21.2546 0.612305 21.1192 0.612305 20.9664V17.1123C0.612305 16.9734 0.660916 16.838 0.758138 16.706C0.85536 16.5741 0.966471 16.5011 1.09147 16.4873L4.32064 15.9873C4.47342 15.5011 4.69564 14.9734 4.9873 14.4039C4.51508 13.7373 3.89008 12.9386 3.1123 12.0081C3.01508 11.8553 2.96647 11.7164 2.96647 11.5914C2.96647 11.4248 3.01508 11.2859 3.1123 11.1748C3.41786 10.7581 3.9873 10.14 4.82064 9.32059C5.65397 8.50115 6.20258 8.09143 6.46647 8.09143C6.61925 8.09143 6.76508 8.14004 6.90397 8.23726L9.2998 10.1123C9.77203 9.86226 10.3067 9.64004 10.904 9.44559C11.0567 7.94559 11.2165 6.87615 11.3831 6.23726C11.4804 5.90393 11.6887 5.73726 12.0081 5.73726H15.8831C16.0359 5.73726 16.1748 5.78934 16.2998 5.89351C16.4248 5.99768 16.4942 6.1192 16.5081 6.25809L16.9873 9.44559C17.4595 9.58448 17.9804 9.79976 18.5498 10.0914L21.0081 8.23726C21.1192 8.14004 21.2581 8.09143 21.4248 8.09143C21.5776 8.09143 21.7234 8.14698 21.8623 8.25809C23.8623 10.1053 24.8623 11.2164 24.8623 11.5914C24.8623 11.7025 24.8137 11.8345 24.7165 11.9873C24.5498 12.2095 24.2581 12.5845 23.8415 13.1123C23.4248 13.64 23.1123 14.0567 22.904 14.3623C23.2234 15.0289 23.4595 15.5984 23.6123 16.0706L26.779 16.5498C26.9179 16.5775 27.0359 16.6505 27.1331 16.7685C27.2304 16.8866 27.279 17.022 27.279 17.1748ZM40.6123 28.2789V31.1956C40.6123 31.4178 39.5776 31.6331 37.5081 31.8414C37.3415 32.2164 37.1331 32.5775 36.8831 32.9248C37.5915 34.4942 37.9456 35.4525 37.9456 35.7998C37.9456 35.8553 37.9179 35.9039 37.8623 35.9456C36.1679 36.9317 35.3068 37.4248 35.279 37.4248C35.1679 37.4248 34.8484 37.0984 34.3206 36.4456C33.7929 35.7928 33.4318 35.3206 33.2373 35.0289C32.9595 35.0567 32.7512 35.0706 32.6123 35.0706C32.4734 35.0706 32.2651 35.0567 31.9873 35.0289C31.7929 35.3206 31.4318 35.7928 30.904 36.4456C30.3762 37.0984 30.0568 37.4248 29.9456 37.4248C29.9179 37.4248 29.0568 36.9317 27.3623 35.9456C27.3067 35.9039 27.279 35.8553 27.279 35.7998C27.279 35.4525 27.6331 34.4942 28.3415 32.9248C28.0915 32.5775 27.8831 32.2164 27.7165 31.8414C25.647 31.6331 24.6123 31.4178 24.6123 31.1956V28.2789C24.6123 28.0567 25.647 27.8414 27.7165 27.6331C27.897 27.2303 28.1054 26.8692 28.3415 26.5498C27.6331 24.9803 27.279 24.022 27.279 23.6748C27.279 23.6192 27.3067 23.5706 27.3623 23.5289C27.4179 23.5011 27.6609 23.3623 28.0915 23.1123C28.522 22.8623 28.9317 22.6261 29.3206 22.4039C29.7095 22.1817 29.9179 22.0706 29.9456 22.0706C30.0568 22.0706 30.3762 22.3935 30.904 23.0393C31.4318 23.6852 31.7929 24.1539 31.9873 24.4456C32.2651 24.4178 32.4734 24.4039 32.6123 24.4039C32.7512 24.4039 32.9595 24.4178 33.2373 24.4456C33.9456 23.4595 34.5845 22.6817 35.154 22.1123L35.279 22.0706C35.3345 22.0706 36.1956 22.5567 37.8623 23.5289C37.9179 23.5706 37.9456 23.6192 37.9456 23.6748C37.9456 24.022 37.5915 24.9803 36.8831 26.5498C37.1193 26.8692 37.3276 27.2303 37.5081 27.6331C39.5776 27.8414 40.6123 28.0567 40.6123 28.2789ZM40.6123 6.94559V9.86226C40.6123 10.0845 39.5776 10.2998 37.5081 10.5081C37.3415 10.8831 37.1331 11.2442 36.8831 11.5914C37.5915 13.1609 37.9456 14.1192 37.9456 14.4664C37.9456 14.522 37.9179 14.5706 37.8623 14.6123C36.1679 15.5984 35.3068 16.0914 35.279 16.0914C35.1679 16.0914 34.8484 15.765 34.3206 15.1123C33.7929 14.4595 33.4318 13.9873 33.2373 13.6956C32.9595 13.7234 32.7512 13.7373 32.6123 13.7373C32.4734 13.7373 32.2651 13.7234 31.9873 13.6956C31.7929 13.9873 31.4318 14.4595 30.904 15.1123C30.3762 15.765 30.0568 16.0914 29.9456 16.0914C29.9179 16.0914 29.0568 15.5984 27.3623 14.6123C27.3067 14.5706 27.279 14.522 27.279 14.4664C27.279 14.1192 27.6331 13.1609 28.3415 11.5914C28.0915 11.2442 27.8831 10.8831 27.7165 10.5081C25.647 10.2998 24.6123 10.0845 24.6123 9.86226V6.94559C24.6123 6.72337 25.647 6.50809 27.7165 6.29976C27.897 5.89698 28.1054 5.53587 28.3415 5.21643C27.6331 3.64698 27.279 2.68865 27.279 2.34143C27.279 2.28587 27.3067 2.23726 27.3623 2.19559C27.4179 2.16781 27.6609 2.02893 28.0915 1.77893C28.522 1.52893 28.9317 1.29281 29.3206 1.07059C29.7095 0.84837 29.9179 0.737259 29.9456 0.737259C30.0568 0.737259 30.3762 1.06018 30.904 1.70601C31.4318 2.35184 31.7929 2.82059 31.9873 3.11226C32.2651 3.08448 32.4734 3.07059 32.6123 3.07059C32.7512 3.07059 32.9595 3.08448 33.2373 3.11226C33.9456 2.12615 34.5845 1.34837 35.154 0.778926L35.279 0.737259C35.3345 0.737259 36.1956 1.22337 37.8623 2.19559C37.9179 2.23726 37.9456 2.28587 37.9456 2.34143C37.9456 2.68865 37.5915 3.64698 36.8831 5.21643C37.1193 5.53587 37.3276 5.89698 37.5081 6.29976C39.5776 6.50809 40.6123 6.72337 40.6123 6.94559Z" fill="#B8A07E"/>
</g>
<defs>
<clipPath id="clip0_196_30">
<rect width="40" height="37.3333" fill="white" transform="translate(0.612305 0.403931)"/>
</clipPath>
</defs>
</svg>
